<?xml version="1.0" standalone="no"?>
<!DOCTYPE svg PUBLIC "-//W3C//DTD SVG 20010904//EN"
 "http://www.w3.org/TR/2001/REC-SVG-20010904/DTD/svg10.dtd">
<svg version="1.0" xmlns="http://www.w3.org/2000/svg"
 width="1024.000000pt" height="1024.000000pt" viewBox="0 0 1024.000000 1024.000000"
 preserveAspectRatio="xMidYMid meet">

<g transform="translate(0.000000,1024.000000) scale(0.100000,-0.100000)"
fill="#000000" stroke="none">
<path d="M4635 9594 c-1094 -41 -1800 -168 -2359 -426 -307 -142 -529 -299
-751 -529 -622 -647 -885 -1693 -885 -3524 0 -2145 368 -3247 1285 -3851 663
-436 1624 -624 3195 -624 1571 0 2532 188 3195 624 917 604 1285 1706 1285
3851 0 1831 -263 2877 -885 3524 -561 583 -1364 855 -2785 941 -171 11 -1115
21 -1295 14z m-1648 -3080 c184 -32 372 -108 535 -216 110 -73 304 -263 363
-355 22 -34 42 -62 45 -62 3 0 23 28 45 62 63 98 253 283 372 361 239 158 482
230 773 230 291 0 534 -72 773 -230 117 -77 307 -261 374 -361 l41 -63 60 83
c212 291 518 481 887 553 134 27 377 24 514 -5 291 -62 511 -180 717 -385 275
-276 408 -599 408 -991 -1 -177 -20 -297 -74 -451 -233 -674 -945 -1066 -1640
-903 -321 75 -608 264 -808 531 l-65 87 -50 -72 c-65 -93 -241 -268 -337 -333
-162 -111 -369 -196 -563 -231 -122 -22 -352 -22 -474 0 -193 35 -401 120
-563 230 -95 65 -282 251 -340 339 -25 37 -47 67 -50 67 -3 0 -25 -30 -50 -66
-25 -37 -83 -107 -129 -156 -289 -303 -694 -457 -1119 -426 -559 42 -1039 417
-1217 952 -50 149 -68 268 -68 437 0 170 18 288 69 438 178 536 638 897 1219
956 67 7 263 -4 352 -20z"/>
</g>
</svg>
