<?xml version="1.0" standalone="no"?>
<!DOCTYPE svg PUBLIC "-//W3C//DTD SVG 20010904//EN"
 "http://www.w3.org/TR/2001/REC-SVG-20010904/DTD/svg10.dtd">
<svg version="1.0" xmlns="http://www.w3.org/2000/svg"
 width="600.000000pt" height="600.000000pt" viewBox="0 0 600.000000 600.000000"
 preserveAspectRatio="xMidYMid meet">

<g transform="translate(0.000000,600.000000) scale(0.100000,-0.100000)"
fill="#000000" stroke="none">
<path d="M33 5953 c139 -193 2300 -3280 2301 -3289 1 -6 -514 -597 -1144
-1314 -630 -717 -1153 -1314 -1163 -1327 l-18 -23 263 0 263 0 1018 1160 c560
638 1021 1160 1025 1159 4 0 372 -521 818 -1157 l810 -1157 892 -3 c491 -1
892 0 892 3 0 4 -2387 3411 -2411 3441 -5 6 407 483 1102 1274 611 695 1112
1267 1115 1272 3 4 -113 8 -258 8 l-263 0 -964 -1098 c-531 -603 -969 -1097
-974 -1097 -6 0 -357 494 -780 1098 l-770 1097 -894 0 -895 0 35 -47z m3357
-2943 c1020 -1430 1861 -2609 1869 -2620 13 -20 13 -20 -393 -20 l-406 0
-1847 2588 c-1015 1423 -1857 2602 -1871 2620 l-24 32 408 0 409 -1 1855
-2599z"/>
</g>
</svg>
