<?xml version="1.0" standalone="no"?>
<!DOCTYPE svg PUBLIC "-//W3C//DTD SVG 20010904//EN"
 "http://www.w3.org/TR/2001/REC-SVG-20010904/DTD/svg10.dtd">
<svg version="1.0" xmlns="http://www.w3.org/2000/svg"
 width="1920.000000pt" height="900.000000pt" viewBox="0 0 1920.000000 900.000000"
 preserveAspectRatio="xMidYMid meet">

<g transform="translate(0.000000,900.000000) scale(0.100000,-0.100000)"
fill="#000000" stroke="none">
<path d="M14805 8928 c39 -40 144 -148 235 -240 l164 -168 1768 0 1768 0 1
-1797 0 -1798 230 -234 229 -234 0 2271 0 2272 -2232 0 -2232 0 69 -72z"/>
<path d="M15420 8303 c30 -32 186 -191 346 -353 160 -162 567 -576 905 -920
337 -344 877 -893 1199 -1220 322 -327 613 -624 648 -660 l62 -65 0 1638 0
1637 -1607 0 -1607 0 54 -57z"/>
<path d="M0 2272 l0 -2272 2232 0 2233 0 -75 78 c-42 42 -147 150 -235 240
l-159 162 -1768 0 -1768 0 -1 1798 0 1797 -230 234 -229 234 0 -2271z"/>
<path d="M620 2278 l0 -1638 1607 0 1607 0 -59 62 c-33 35 -188 193 -345 353
-157 159 -425 432 -595 605 -171 173 -445 452 -610 620 -165 168 -433 440
-595 605 -162 165 -430 437 -596 605 -165 168 -326 332 -357 365 l-57 60 0
-1637z"/>
</g>
</svg>
