<svg xmlns="http://www.w3.org/2000/svg" version="1.1" xmlns:xlink="http://www.w3.org/1999/xlink" xmlns:svgjs="http://svgjs.dev/svgjs" width="2000" height="636" viewBox="0 0 2000 636"><g transform="matrix(1,0,0,1,-1.2121212121212466,0.05147049050225405)"><svg viewBox="0 0 396 126" data-background-color="#84cdee" preserveAspectRatio="xMidYMid meet" height="636" width="2000" xmlns="http://www.w3.org/2000/svg" xmlns:xlink="http://www.w3.org/1999/xlink"><g id="tight-bounds" transform="matrix(1,0,0,1,0.2400000000000091,-0.010196983967432516)"><svg viewBox="0 0 395.52 126.02039396793487" height="126.02039396793487" width="395.52"><g><svg viewBox="0 0 601.9078149470189 191.7795812398922" height="126.02039396793487" width="395.52"><g transform="matrix(1,0,0,1,0,26.504992776280332)"><svg viewBox="0 0 395.52 138.76959568733153" height="138.76959568733153" width="395.52"><g id="textblocktransform"><svg viewBox="0 0 395.52 138.76959568733153" height="138.76959568733153" width="395.52" id="textblock"><g><svg viewBox="0 0 395.52 138.76959568733153" height="138.76959568733153" width="395.52"><g transform="matrix(1,0,0,1,0,0)"><svg width="395.52" viewBox="1.45 -35.05 111.3 39.05" height="138.76959568733153" data-palette-color="#ffffff"><g class="wordmark-text-0" data-fill-palette-color="primary" id="text-0"><path d="M19.95 0.5L19.95 0.5 18.65 0.5Q9.7 0.5 5.58-3.93 1.45-8.35 1.45-17.45 1.45-26.55 5.58-30.8 9.7-35.05 18.65-35.05L18.65-35.05 19.95-35.05Q28.95-35.05 33.08-30.8 37.2-26.55 37.2-17.5L37.2-17.5Q37.2-14.95 36.77-12.7 36.35-10.45 35.9-9.5L35.9-9.5 35.45-8.5 37.7-8 35.55 4Q30.5 4 27.83 2.78 25.15 1.55 24.3 0.15L24.3 0.15Q21.95 0.5 19.95 0.5ZM17.85-18.6L17.85-18.6 17.85-12.8Q17.85-12.15 18.25-11.75 18.65-11.35 19.28-11.35 19.9-11.35 20.33-11.75 20.75-12.15 20.75-12.8L20.75-12.8 20.75-18.6Q20.75-19.2 20.33-19.6 19.9-20 19.28-20 18.65-20 18.25-19.6 17.85-19.2 17.85-18.6ZM56.85-35.05L56.85-35.05 61-35.05Q70-35.05 74.1-30.8 78.2-26.55 78.2-17.45 78.2-8.35 74.07-3.93 69.95 0.5 61 0.5L61 0.5 56.85 0.5Q47.9 0.5 43.75-3.93 39.6-8.35 39.6-17.45 39.6-26.55 43.72-30.8 47.85-35.05 56.85-35.05ZM57.5-18.6L57.5-18.6 57.5-12.8Q57.5-12.15 57.87-11.75 58.25-11.35 58.87-11.35 59.5-11.35 59.92-11.75 60.35-12.15 60.35-12.8L60.35-12.8 60.35-18.6Q60.35-19.2 59.92-19.6 59.5-20 58.87-20 58.25-20 57.87-19.6 57.5-19.2 57.5-18.6ZM97.35-35.05L97.35-35.05Q101.45-35.05 105.02-34.52 108.6-34 110.15-33.45L110.15-33.45 111.65-32.9 111.65-18.6Q107.6-20.45 100.55-20.45L100.55-20.45 100.55-19.15Q107.05-18.65 109.9-16.55 112.75-14.45 112.75-10.2L112.75-10.2Q112.75-5.1 108.6-2.3 104.45 0.5 95.8 0.5L95.8 0.5Q90.85 0.5 87.05-0.08 83.25-0.65 81.95-1.2L81.95-1.2 80.6-1.8 80.6-14.25Q81.05-14.05 81.95-13.7 82.85-13.35 85.97-12.8 89.1-12.25 92.7-12.25L92.7-12.25 92.7-13.45Q86.6-13.9 83.5-16.05 80.4-18.2 80.4-23.55 80.4-28.9 84.65-31.98 88.9-35.05 97.35-35.05Z" fill="#ffffff" data-fill-palette-color="primary"></path></g></svg></g></svg></g></svg></g></svg></g><g transform="matrix(1,0,0,1,428.28017107148247,0)"><svg viewBox="0 0 173.6276438755364 191.7795812398922" height="191.7795812398922" width="173.6276438755364"><g><svg xmlns="http://www.w3.org/2000/svg" xmlns:xlink="http://www.w3.org/1999/xlink" version="1.1" x="0" y="0" viewBox="4.732 0 90.535 100" enable-background="new 0 0 100 100" xml:space="preserve" height="191.7795812398922" width="173.6276438755364" class="icon-icon-0" data-fill-palette-color="accent" id="icon-0"><g fill="#010100" data-fill-palette-color="accent"><path fill="#010100" d="M4.732 0v100h90.535V0H4.732zM10.09 15.859V5.357h10.502v10.502H10.09zM10.09 31.632v-10.5h10.502v10.5H10.09zM10.09 47.407V36.904h10.502v10.503H10.09zM10.09 63.181V52.68h10.502v10.501H10.09zM10.09 78.954V68.453h10.502v10.501H10.09zM10.09 94.727V84.228h10.502v10.499H10.09zM25.779 47.322V5.357h48.273v41.965H25.779zM25.779 94.644V52.68h48.273v41.964H25.779zM79.408 15.859V5.357H89.91v10.502H79.408zM79.408 31.632v-10.5H89.91v10.5H79.408zM79.408 47.407V36.904H89.91v10.503H79.408zM79.408 63.181V52.68H89.91v10.501H79.408zM79.408 78.954V68.453H89.91v10.501H79.408zM79.408 94.727V84.228H89.91v10.499H79.408z" data-fill-palette-color="accent"></path></g></svg></g></svg></g></svg></g><defs></defs></svg><rect width="395.52" height="126.02039396793487" fill="none" stroke="none" visibility="hidden"></rect></g></svg></g></svg>